<svg width="139.75625px" height="122px" xmlns="http://www.w3.org/2000/svg" viewBox="180.121875 14 139.75625 122" style="background: rgba(0, 0, 0, 0);" preserveAspectRatio="xMidYMid"><defs><filter id="editing-extrusion" x="-100%" y="-100%" width="300%" height="300%"><feFlood result="color1" flood-color="#444"></feFlood><feConvolveMatrix order="8,8" divisor="1" kernelMatrix="1 0 0 0 0 0 0 0 0 1 0 0 0 0 0 0 0 0 1 0 0 0 0 0 0 0 0 1 0 0 0 0 0 0 0 0 1 0 0 0 0 0 0 0 0 1 0 0 0 0 0 0 0 0 1 0 0 0 0 0 0 0 0 1" in="SourceAlpha" result="extrude"></feConvolveMatrix><feComposite in="color1" in2="extrude" result="comp-extrude" operator="in"></feComposite><feOffset dx="4" dy="4" in="comp-extrude" result="offset-extrude"></feOffset><feMerge><feMergeNode in="offset-extrude"></feMergeNode><feMergeNode in="SourceGraphic"></feMergeNode></feMerge></filter></defs><g filter="url(#editing-extrusion)"><g transform="translate(208.84913063049316, 97.14499855041504)"><path d="M29.18 1.28L29.18 1.28L29.18 1.28Q20.99 1.28 20.22-10.37L20.22-10.37L9.22-10.37L9.22-10.37Q7.94-7.42 7.04-4.86L7.04-4.86L5.38 0L-3.58 0L16.58-42.24L30.34-42.24L33.02-11.14L33.02-11.14Q33.66-4.42 36.22-2.43L36.22-2.43L36.22-2.43Q34.37 1.28 29.18 1.28ZM14.72-23.17L11.20-15.04L20.03-15.04L19.26-31.49L19.26-33.22L14.72-23.17ZM81.47-26.56L81.47-26.56L81.47-26.56Q81.47 0.70 51.90 0.70L51.90 0.70L51.90 0.70Q47.17 0.70 39.36-0.45L39.36-0.45L46.53-38.27L46.53-38.27Q47.04-40.83 47.36-42.30L47.36-42.30L47.36-42.30Q57.09-43.01 61.41-43.01L61.41-43.01L61.41-43.01Q65.73-43.01 69.70-42.11L69.70-42.11L69.70-42.11Q73.66-41.22 76.29-39.23L76.29-39.23L76.29-39.23Q81.47-35.33 81.47-26.56ZM68.29-28.93L68.29-28.93L68.29-28.93Q68.29-38.46 61.44-38.46L61.44-38.46L60.80-38.46L60.80-38.46Q60.48-38.46 60.16-38.40L60.16-38.40L53.57-4.03L53.57-4.03Q53.82-3.90 54.08-3.90L54.08-3.90L54.59-3.90L54.59-3.90Q56.96-3.90 59.42-5.38L59.42-5.38L59.42-5.38Q61.89-6.85 63.81-9.86L63.81-9.86L63.81-9.86Q68.29-16.83 68.29-28.93Z" fill="#ccc"></path></g></g><style>text {
  font-size: 64px;
  font-family: Arial Black;
  dominant-baseline: central;
  text-anchor: middle;
}</style></svg>